<mxfile host="Electron" agent="Mozilla/5.0 (Windows NT 10.0; Win64; x64) AppleWebKit/537.36 (KHTML, like Gecko) draw.io/24.7.17 Chrome/128.0.6613.36 Electron/32.0.1 Safari/537.36" version="24.7.17">
  <diagram name="PÃ¡gina-1" id="xiktUV_zDYfVwnsfWdl2">
    <mxGraphModel dx="1100" dy="665" grid="1" gridSize="10" guides="1" tooltips="1" connect="1" arrows="1" fold="1" page="1" pageScale="1" pageWidth="827" pageHeight="1169" math="0" shadow="0">
      <root>
        <mxCell id="0" />
        <mxCell id="1" parent="0" />
        <mxCell id="ZLsFF8J6bFk4X7R3eDmL-1" value="" style="ellipse;whiteSpace=wrap;html=1;aspect=fixed;" vertex="1" parent="1">
          <mxGeometry x="310" y="50" width="50" height="50" as="geometry" />
        </mxCell>
        <mxCell id="ZLsFF8J6bFk4X7R3eDmL-2" value="" style="endArrow=none;html=1;rounded=0;" edge="1" parent="1">
          <mxGeometry width="50" height="50" relative="1" as="geometry">
            <mxPoint x="334.76" y="150" as="sourcePoint" />
            <mxPoint x="334.76" y="100" as="targetPoint" />
          </mxGeometry>
        </mxCell>
        <mxCell id="ZLsFF8J6bFk4X7R3eDmL-6" value="" style="edgeStyle=orthogonalEdgeStyle;rounded=0;orthogonalLoop=1;jettySize=auto;html=1;" edge="1" parent="1">
          <mxGeometry relative="1" as="geometry">
            <mxPoint x="380" y="210" as="sourcePoint" />
            <mxPoint x="380" y="330" as="targetPoint" />
          </mxGeometry>
        </mxCell>
        <mxCell id="ZLsFF8J6bFk4X7R3eDmL-11" value="" style="edgeStyle=orthogonalEdgeStyle;rounded=0;orthogonalLoop=1;jettySize=auto;html=1;" edge="1" parent="1">
          <mxGeometry relative="1" as="geometry">
            <mxPoint x="395" y="163" as="sourcePoint" />
            <mxPoint x="640" y="163" as="targetPoint" />
          </mxGeometry>
        </mxCell>
        <mxCell id="ZLsFF8J6bFk4X7R3eDmL-28" style="edgeStyle=orthogonalEdgeStyle;rounded=0;orthogonalLoop=1;jettySize=auto;html=1;" edge="1" parent="1" source="ZLsFF8J6bFk4X7R3eDmL-3" target="ZLsFF8J6bFk4X7R3eDmL-27">
          <mxGeometry relative="1" as="geometry" />
        </mxCell>
        <mxCell id="ZLsFF8J6bFk4X7R3eDmL-3" value="Conservando&lt;div&gt;Energia&lt;/div&gt;" style="rounded=0;whiteSpace=wrap;html=1;" vertex="1" parent="1">
          <mxGeometry x="275" y="150" width="120" height="60" as="geometry" />
        </mxCell>
        <mxCell id="ZLsFF8J6bFk4X7R3eDmL-4" value="se enciende la&lt;div&gt;estacion&lt;/div&gt;&lt;div&gt;//&lt;/div&gt;" style="text;html=1;align=center;verticalAlign=middle;resizable=0;points=[];autosize=1;strokeColor=none;fillColor=none;" vertex="1" parent="1">
          <mxGeometry x="350" y="23" width="100" height="60" as="geometry" />
        </mxCell>
        <mxCell id="ZLsFF8J6bFk4X7R3eDmL-8" style="edgeStyle=orthogonalEdgeStyle;rounded=0;orthogonalLoop=1;jettySize=auto;html=1;" edge="1" parent="1">
          <mxGeometry relative="1" as="geometry">
            <mxPoint x="310" y="330" as="sourcePoint" />
            <mxPoint x="310" y="210" as="targetPoint" />
          </mxGeometry>
        </mxCell>
        <mxCell id="ZLsFF8J6bFk4X7R3eDmL-30" style="edgeStyle=orthogonalEdgeStyle;rounded=0;orthogonalLoop=1;jettySize=auto;html=1;curved=1;" edge="1" parent="1" source="ZLsFF8J6bFk4X7R3eDmL-5">
          <mxGeometry relative="1" as="geometry">
            <mxPoint x="310" y="400" as="targetPoint" />
          </mxGeometry>
        </mxCell>
        <mxCell id="ZLsFF8J6bFk4X7R3eDmL-5" value="Recolectando&lt;div&gt;Datos&lt;/div&gt;" style="whiteSpace=wrap;html=1;rounded=0;" vertex="1" parent="1">
          <mxGeometry x="275" y="330" width="120" height="60" as="geometry" />
        </mxCell>
        <mxCell id="ZLsFF8J6bFk4X7R3eDmL-7" value="&lt;h5&gt;&lt;span style=&quot;font-weight: normal;&quot;&gt;se pasa un minuto&lt;br&gt;//&lt;/span&gt;&lt;/h5&gt;" style="text;html=1;align=center;verticalAlign=middle;resizable=0;points=[];autosize=1;strokeColor=none;fillColor=none;" vertex="1" parent="1">
          <mxGeometry x="380" y="220" width="100" height="70" as="geometry" />
        </mxCell>
        <mxCell id="ZLsFF8J6bFk4X7R3eDmL-9" value="&lt;h6&gt;&lt;span style=&quot;font-weight: normal;&quot;&gt;se completa&lt;br&gt;la recoleccion&lt;br&gt;//Almacenar Datos&lt;/span&gt;&lt;/h6&gt;" style="text;html=1;align=center;verticalAlign=middle;resizable=0;points=[];autosize=1;strokeColor=none;fillColor=none;" vertex="1" parent="1">
          <mxGeometry x="215" y="223" width="90" height="80" as="geometry" />
        </mxCell>
        <mxCell id="ZLsFF8J6bFk4X7R3eDmL-13" style="edgeStyle=orthogonalEdgeStyle;rounded=0;orthogonalLoop=1;jettySize=auto;html=1;" edge="1" parent="1">
          <mxGeometry relative="1" as="geometry">
            <mxPoint x="640" y="170" as="sourcePoint" />
            <mxPoint x="394.9999999999999" y="170" as="targetPoint" />
          </mxGeometry>
        </mxCell>
        <mxCell id="ZLsFF8J6bFk4X7R3eDmL-15" style="edgeStyle=orthogonalEdgeStyle;rounded=0;orthogonalLoop=1;jettySize=auto;html=1;" edge="1" parent="1">
          <mxGeometry relative="1" as="geometry">
            <mxPoint x="640" y="209.31" as="sourcePoint" />
            <mxPoint x="394.9999999999999" y="209.31" as="targetPoint" />
          </mxGeometry>
        </mxCell>
        <mxCell id="ZLsFF8J6bFk4X7R3eDmL-16" style="edgeStyle=orthogonalEdgeStyle;rounded=0;orthogonalLoop=1;jettySize=auto;html=1;curved=1;" edge="1" parent="1" source="ZLsFF8J6bFk4X7R3eDmL-10">
          <mxGeometry relative="1" as="geometry">
            <mxPoint x="770" y="160" as="targetPoint" />
          </mxGeometry>
        </mxCell>
        <mxCell id="ZLsFF8J6bFk4X7R3eDmL-22" style="edgeStyle=orthogonalEdgeStyle;rounded=0;orthogonalLoop=1;jettySize=auto;html=1;" edge="1" parent="1" source="ZLsFF8J6bFk4X7R3eDmL-10" target="ZLsFF8J6bFk4X7R3eDmL-20">
          <mxGeometry relative="1" as="geometry" />
        </mxCell>
        <mxCell id="ZLsFF8J6bFk4X7R3eDmL-10" value="Transmitiendo&lt;div&gt;Datos&lt;/div&gt;" style="whiteSpace=wrap;html=1;rounded=0;" vertex="1" parent="1">
          <mxGeometry x="640" y="150" width="120" height="60" as="geometry" />
        </mxCell>
        <mxCell id="ZLsFF8J6bFk4X7R3eDmL-12" value="se pasan&lt;div&gt;6 horas&lt;/div&gt;&lt;div&gt;//Iniciar Contador en 0&lt;/div&gt;" style="text;html=1;align=center;verticalAlign=middle;resizable=0;points=[];autosize=1;strokeColor=none;fillColor=none;" vertex="1" parent="1">
          <mxGeometry x="400" y="103" width="140" height="60" as="geometry" />
        </mxCell>
        <mxCell id="ZLsFF8J6bFk4X7R3eDmL-14" value="&lt;h6 style=&quot;font-size: 7px;&quot;&gt;&lt;span style=&quot;font-weight: normal;&quot;&gt;finaliza transmision&lt;br&gt;[transmision exitosa]&lt;br&gt;//Registrar Hora&lt;/span&gt;&lt;/h6&gt;" style="text;html=1;align=center;verticalAlign=middle;resizable=0;points=[];autosize=1;strokeColor=none;fillColor=none;" vertex="1" parent="1">
          <mxGeometry x="550" y="150" width="90" height="70" as="geometry" />
        </mxCell>
        <mxCell id="ZLsFF8J6bFk4X7R3eDmL-17" value="&lt;h1 style=&quot;font-size: 7px;&quot;&gt;&lt;span style=&quot;font-weight: normal;&quot;&gt;finaliza transmision&lt;br&gt;[transmision fallida y&amp;nbsp;&lt;br&gt;contador menor a 2]&lt;br&gt;//Incrementar Contador&lt;/span&gt;&lt;/h1&gt;" style="text;html=1;align=center;verticalAlign=middle;resizable=0;points=[];autosize=1;strokeColor=none;fillColor=none;" vertex="1" parent="1">
          <mxGeometry x="725" y="98" width="100" height="60" as="geometry" />
        </mxCell>
        <mxCell id="ZLsFF8J6bFk4X7R3eDmL-19" value="&lt;h1 style=&quot;font-size: 7px;&quot;&gt;&lt;span style=&quot;font-weight: normal;&quot;&gt;finaliza transmision&lt;br&gt;[transmision fallida y&amp;nbsp;&lt;br&gt;contador igual 2]&lt;br&gt;//Registrar Hora&lt;/span&gt;&lt;/h1&gt;" style="text;html=1;align=center;verticalAlign=middle;resizable=0;points=[];autosize=1;strokeColor=none;fillColor=none;" vertex="1" parent="1">
          <mxGeometry x="545" y="210" width="90" height="60" as="geometry" />
        </mxCell>
        <mxCell id="ZLsFF8J6bFk4X7R3eDmL-20" value="" style="ellipse;shape=doubleEllipse;whiteSpace=wrap;html=1;aspect=fixed;" vertex="1" parent="1">
          <mxGeometry x="675" y="280" width="50" height="50" as="geometry" />
        </mxCell>
        <mxCell id="ZLsFF8J6bFk4X7R3eDmL-23" value="se apaga la&lt;div&gt;estacion&lt;/div&gt;&lt;div&gt;//Guardar Datos&lt;/div&gt;" style="text;html=1;align=center;verticalAlign=middle;resizable=0;points=[];autosize=1;strokeColor=none;fillColor=none;" vertex="1" parent="1">
          <mxGeometry x="715" y="275" width="110" height="60" as="geometry" />
        </mxCell>
        <mxCell id="ZLsFF8J6bFk4X7R3eDmL-24" value="" style="ellipse;shape=doubleEllipse;whiteSpace=wrap;html=1;aspect=fixed;" vertex="1" parent="1">
          <mxGeometry x="480" y="330" width="50" height="50" as="geometry" />
        </mxCell>
        <mxCell id="ZLsFF8J6bFk4X7R3eDmL-25" value="" style="endArrow=none;html=1;rounded=0;" edge="1" parent="1" source="ZLsFF8J6bFk4X7R3eDmL-5" target="ZLsFF8J6bFk4X7R3eDmL-24">
          <mxGeometry width="50" height="50" relative="1" as="geometry">
            <mxPoint x="484.86" y="430" as="sourcePoint" />
            <mxPoint x="484.86" y="380" as="targetPoint" />
          </mxGeometry>
        </mxCell>
        <mxCell id="ZLsFF8J6bFk4X7R3eDmL-26" value="se apaga la&lt;div&gt;estacion&lt;/div&gt;&lt;div&gt;//Guardar Datos&lt;/div&gt;" style="text;html=1;align=center;verticalAlign=middle;resizable=0;points=[];autosize=1;strokeColor=none;fillColor=none;" vertex="1" parent="1">
          <mxGeometry x="460" y="390" width="110" height="60" as="geometry" />
        </mxCell>
        <mxCell id="ZLsFF8J6bFk4X7R3eDmL-27" value="" style="ellipse;shape=doubleEllipse;whiteSpace=wrap;html=1;aspect=fixed;" vertex="1" parent="1">
          <mxGeometry x="110" y="155" width="50" height="50" as="geometry" />
        </mxCell>
        <mxCell id="ZLsFF8J6bFk4X7R3eDmL-29" value="se apaga la&lt;div&gt;estacion&lt;/div&gt;&lt;div&gt;//Guardar Datos&lt;/div&gt;" style="text;html=1;align=center;verticalAlign=middle;resizable=0;points=[];autosize=1;strokeColor=none;fillColor=none;" vertex="1" parent="1">
          <mxGeometry x="20" y="100" width="110" height="60" as="geometry" />
        </mxCell>
        <mxCell id="ZLsFF8J6bFk4X7R3eDmL-31" value="se captura un dato&lt;div&gt;[dato es significativo]&lt;/div&gt;&lt;div&gt;//Almacenar Lectura&lt;/div&gt;" style="text;html=1;align=center;verticalAlign=middle;resizable=0;points=[];autosize=1;strokeColor=none;fillColor=none;" vertex="1" parent="1">
          <mxGeometry x="235" y="413" width="130" height="60" as="geometry" />
        </mxCell>
      </root>
    </mxGraphModel>
  </diagram>
</mxfile>
